<svg version="1.1" id="dt" xmlns="http://www.w3.org/2000/svg" xmlns:xlink="http://www.w3.org/1999/xlink" x="0" y="0" width="257" height="64" viewBox="0 0 257 64" enable-background="new 0 0 257 64" xml:space="preserve">
  <g id="good_causes_right_arm">
    <path id="XMLID_2_" fill="#2EC3EF" d="M67.4 22.6c8.6 9.1-7 35.6-12.8 33.3C44.1 51.8 55.9 20.5 67.4 22.6z"/>
    <path id="XMLID_8_" fill="#FACAC8" d="M250.6 52.6c-8.1 12.4-29.4 13.9-36.5 6.3 -0.9-1-1.7-2-2.4-2.9 -1.1 0.2-2.4 0.3-3.8 0.5 -1.5 0.2-3.1 0.4-4.8 0.7 -1.8 0.2-3.7 0.4-5.7 0.6 -4.1 0.4-8.7 1-13.7 1.3 -2.5 0.2-5.1 0.4-7.9 0.6 -2.7 0.2-5.5 0.3-8.4 0.4 -5.8 0.3-11.9 0.4-18.3 0.4 -3.2 0.1-6.4-0.1-9.7-0.2 -3.3-0.1-6.6-0.1-9.9-0.4 -3.3-0.2-6.7-0.4-10.1-0.6 -3.4-0.3-6.8-0.7-10.2-1 -3.4-0.3-6.8-0.8-10.2-1.3 -3.4-0.5-6.8-0.9-10.1-1.6 -3.3-0.6-6.6-1.2-9.9-1.9 -3.3-0.7-6.5-1.5-9.6-2.2 -1.6-0.4-3.1-0.7-4.7-1.1 -1.5-0.4-3.1-0.9-4.6-1.3 -3-0.9-6-1.7-8.8-2.6 -2.8-1-5.6-1.9-8.3-2.8 -1.3-0.5-2.7-0.9-3.9-1.4 -1.3-0.5-2.5-1-3.7-1.5 -1.1-0.4-2.1-0.8-3.1-1.2L45 12.6c0.7 0.4 1.5 0.8 2.3 1.2 1 0.5 2.1 1.1 3.2 1.6 1.1 0.5 2.2 1 3.4 1.5 2.3 1 4.7 2.1 7.1 3.2 2.5 1 5.1 2 7.7 3 1.3 0.5 2.7 1 4 1.6 1.4 0.5 2.8 0.9 4.2 1.4 2.8 0.9 5.6 1.9 8.6 2.8 2.9 0.8 5.9 1.7 8.9 2.6 3 0.9 6.1 1.5 9.2 2.3 3.1 0.8 6.2 1.5 9.3 2.1 3.1 0.6 6.3 1.3 9.4 1.8 3.2 0.5 6.3 1 9.4 1.5 3.1 0.6 6.2 0.8 9.3 1.2 3.1 0.3 6.1 0.8 9.1 1 6 0.5 11.9 1.1 17.4 1.3 2.8 0.1 5.5 0.3 8.1 0.4 2.6 0 5.2 0.1 7.6 0.1 4.9 0.2 9.3 0 13.3 0 2 0 3.8-0.1 5.6-0.1 1.7-0.1 3.3-0.1 4.7-0.2 0.7 0 1.3-0.1 2-0.1 0-0.1 0-0.1 0-0.2l-0.1 0c0-14.7 2.3-18.2 6.1-22.5 5.7-6.4 8.3-7.9 11.1-6.4 2.7 1.5-2.8 10.2-4.5 13.1 -1 1.7-1.8 5-1.3 8 3.8-0.5 6.5-1.3 10.9-2.9 10.8-4 11.4-11.9 20.4-6.2C256.7 29.2 259.4 39.2 250.6 52.6z"/>
    <path id="XMLID_7_" fill="#ECA39E" d="M67.4 22.6c-8.9 3.4-8.8 23.6-4 27.3 -2.2-0.5-8.1-2.4-10.9-3.2C50 39.1 58.1 21.9 67.4 22.6z"/>
    <path id="XMLID_9_" fill="#67CBE5" d="M29 3.4c10.8 6 23.8 13.3 38.4 19.2 -13.2 2.2-18.2 28.9-12.8 33.3C37.5 51.5 16.2 43.7 6.8 37 -7.6 29.2 6.8-8.9 29 3.4z"/>
  </g>
</svg>