<svg version="1.1" id="Layer_1" xmlns="http://www.w3.org/2000/svg" xmlns:xlink="http://www.w3.org/1999/xlink" x="0" y="0" width="370" height="370" viewBox="0 0 370 370" enable-background="new 0 0 370 370" xml:space="preserve">
  <g id="good_causes_body">
    <path id="XMLID_32_" fill="#7FEBF7" d="M185 368.9C83.4 368.9 1 286.6 1 185S83.4 1 185 1s184 82.4 184 184S286.6 368.9 185 368.9z"/>
    <path id="XMLID_3_" fill="#2EC3EF" d="M252.7 215.6c0 67.6-3.5 107.9-5.6 142.6 -19.4 7-40.3 10.8-62.2 10.8 -23.7 0-46.3-4.5-67.1-12.6 -2-34.3-5.4-74.3-5.4-140.7C94.6 231 76.1 209.9 96 195.2c23.9-16.5 39.1-26.8 86.5-26.8 47.4 0 63 9.9 86.9 26.4C286.3 207.3 266.2 228.3 252.7 215.6z"/>
    <path id="XMLID_4_" fill="#FFFFFF" d="M222.9 282.7c0 0-32.6 0-39 0 -18.8 0-32.1-13.4-32.1-31.6 0-18.2 13.3-31.6 32.1-31.6 18.8 0 32.1 13.4 32.1 31.6 0 6.8-1.9 12.5-5.4 17.4l-10.5-12c0.4-1.7 0.7-3.5 0.7-5.4 0-10.4-7.1-17.7-17-17.7 -9.9 0-17 7.2-17 17.7 0 10.4 7.1 17.7 17 17.7 0.1 0 0.3 0 0.4 0l26.5 0L222.9 282.7z"/>
    <path id="XMLID_5_" fill="#FACAC8" d="M196.1 176.2c0 4.3-5.9 7.9-13.1 7.9 -7.2 0-13.1-3.5-13.1-7.9v-24.6h26.2V176.2z"/>
    <path id="XMLID_6_" fill="#ECA39E" d="M196.1 159.4v13.9c-4.8 1.5-9.8 2.3-14.9 2.3 -3.9 0-7.7-0.5-11.4-1.3v-14.9H196.1z"/>
  </g>
</svg>