<svg version="1.1" id="head" xmlns="http://www.w3.org/2000/svg" xmlns:xlink="http://www.w3.org/1999/xlink" x="0" y="0" width="151" height="195" viewBox="0 0 151 195" enable-background="new 0 0 151 195" xml:space="preserve">
  <g id="good_causes_head">
    <path id="XMLID_15_" fill="#F7B0B1" d="M149.8 104.8c0 7-5.7 12.7-12.7 12.7 -7 0-12.7-5.7-12.7-12.7 0-7 5.7-12.7 12.7-12.7C144.1 92.1 149.8 97.8 149.8 104.8z"/>
    <path id="XMLID_14_" fill="#F7B0B1" d="M26.4 104.6c0 7-5.7 12.7-12.7 12.7S1 111.6 1 104.6c0-7 5.7-12.7 12.7-12.7S26.4 97.6 26.4 104.6z"/>
    <path id="XMLID_29_" fill="#FACAC8" d="M137.1 101.1c-0.1 43.1-27.7 78-61.8 78C41.2 179 13.6 144 13.7 100.9c0.1-43.1 27.7-67.9 61.8-67.8S137.2 58 137.1 101.1z"/>
    <path id="XMLID_12_" fill="#FFFFFF" d="M93.1 127.6c0 9.4-7.7 17-17.1 17 -9.4 0-17-7.7-17-17.1S93.2 118.2 93.1 127.6z"/>
    <path id="XMLID_28_" fill="#ECA39E" d="M122.8 46.1c0.3 1.3 0.5 2.7 0.5 4.3 0 11.5-8.7 23.9-53.2 23.9 -30.1 0-47.9-11.2-54.9-24.2 1.4-2.3 2.2-2.8 4.1-2.8C28 57.6 44.6 65.5 70.1 65.6 108.9 65.7 120.5 56.2 122.8 46.1z"/>
    <path id="XMLID_21_" fill="#EC5B33" d="M137.2 49.3c-3-7.5-36.3-0.1-36.3-0.1l0 9c17.6 10.9 29.3 30.3 29.2 52.5 0 0.4 0 0.8 0 1.2 -0.1 0.9-0.1 1.8-0.1 2.9 0 7.3-4.1 46.4-31.2 48.5 -12.1-1.2 2-36 2-41.7 0-6.6-16.6-9.5-24.6-9.6l0 0c-0.1 0-0.1 0-0.2 0 -0.1 0-0.1 0-0.2 0l0 0c-8 0.1-24.6 2.9-24.7 9.5 0 5.7 14.2 41 1.7 41.7 -27.6-1.8-31.6-41.3-31.6-48.7 0-1.1 0-2-0.1-2.9 0-0.4 0-0.8 0-1.2 0-22.2 11.8-41.6 29.4-52.4l0-9c0 0-33.2-7.6-36.3-0.1 -5.7 13.9-0.1 65.6-0.1 65.6 7.6 66.2 32.5 78.9 61.2 79l0 0c0.1 0 0.1 0 0.2 0 0.1 0 0.1 0 0.2 0l0 0c28.7-0.1 53.6-12.7 61.4-78.8C137.1 114.8 142.8 63.2 137.2 49.3zM75.7 148.8L75.7 148.8c-0.1 0-0.1 0-0.2 0 -0.1 0-0.1 0-0.2 0l0 0c-7.3 0.2-8.3 5.7-11.2 9.9 -3.4-7.6-7.9-24.6-4.1-29.4 3-3.7 11.2-4.6 15.9-4.6 4.7 0 13 0.9 15.9 4.7 3.9 4.9-1.1 22.7-4.5 30C84.1 155.1 83.4 149 75.7 148.8z"/>
    <path id="XMLID_24_" fill="#EC5B33" d="M123.3 41.7c0 11.5-8.7 23.9-53.2 23.9 -40.2-0.1-58.4-19.8-58.3-37.5C11.7 11.7 22.4 1 33 1c-2.5 6.3-0.1 13.6 4.6 17.7 2.1-6.2 6.5-10.6 11.7-12.2 -0.9 9.4 1 15.4 11.5 15.8l0 0c5.2 0.1 11.2 0.1 17.5 0.1C106.6 22.4 123.3 24.7 123.3 41.7z"/>
    <path id="XMLID_11_" fill="#E83726" d="M135.9 122.3c-8.8 59.6-32.9 71.3-60.4 71.3l0 0c-0.1 0-0.1 0-0.2 0s-0.1 0-0.2 0l0 0c-27.5-0.2-51.6-11.9-60.2-71.5 10.4 48.6 33.8 58.7 60.2 58.8l0 0c0.1 0 0.1 0 0.2 0 0.1 0 0.1 0 0.2 0l0 0C101.9 180.9 125.3 170.9 135.9 122.3z"/>
    <path id="XMLID_27_" fill="#E83726" d="M111.9 67.3c-2.1-2.1-4.4-4.1-6.8-5.9 11.4-3.7 15.9-9.4 17.3-15.3 0.3 1.3 0.5 2.7 0.5 4.3C122.9 56.5 120.5 62.7 111.9 67.3zM44.2 62.3c-12.1-3.4-20.7-9.2-26.1-16 -1.9 0.5-3.4 1.2-4 2.3 3.7 7.9 11.3 15.3 23.2 20C39.4 66.4 41.7 64.3 44.2 62.3z"/>
    <path id="XMLID_18_" fill="#C0635D" d="M54.3 99.3c-0.1 0-0.1 0-0.2 0 -1 0-1.8-0.8-1.8-1.8 0-3.7-3-6.8-6.8-6.8 -3.7 0-6.8 3-6.8 6.8 0 1-0.8 1.8-1.8 1.8 -1 0-1.8-0.8-1.8-1.8 0-5.7 4.7-10.3 10.4-10.3 5.7 0 10.3 4.7 10.3 10.4C55.9 98.4 55.2 99.2 54.3 99.3zM118.1 97.6c0-2.8-1.1-5.4-3-7.3 -2-2-4.6-3-7.3-3 -2.8 0-5.4 1.1-7.3 3 -2 2-3 4.6-3 7.3 0 1 0.8 1.8 1.8 1.8 1 0 1.8-0.8 1.8-1.8 0-1.8 0.7-3.5 2-4.8 1.3-1.3 3-2 4.8-2 3.7 0 6.8 3.1 6.8 6.8 0 1 0.8 1.8 1.8 1.8 0.1 0 0.1 0 0.2 0C117.4 99.3 118.1 98.5 118.1 97.6z"/>
    <path id="XMLID_25_" fill="#F48652" d="M123.3 41.7c0 1.8-0.2 3.6-0.8 5.4 0-17-18-18.3-46.2-18.3 -6.3 0-12.3 0-17.5-0.1 -10.5-0.3-16.3-0.6-23.2-3.6C28.7 22.2 23.3 7.3 33 1c-2.5 6.3-0.1 13.6 4.6 17.7 0 0 0 0 0 0 2.5 1.9 5.8 3.5 9.8 4 -5.8-5.5 1.1-15.1 1.8-16.1 0 0 0.1 0 0.1 0 -0.9 9.4 1 15.4 11.5 15.8 5.2 0.1 11.2 0.1 17.5 0.1C106.7 22.4 123.3 24.7 123.3 41.7z"/>
    <path id="XMLID_23_" fill="#EC5B33" d="M35.6 81.8C35 75.9 60 70.7 61.4 77.4 62.9 84.1 36 85.9 35.6 81.8zM116.2 75.9c0.7-5.9-24.3-11.2-25.8-4.5S115.8 80 116.2 75.9z"/>
    <path id="XMLID_17_" fill="#F7B0B1" d="M76.1 114.8c-7.6 0-10-2.7-10-7.3 0-4.7 5.8-27.5 10.1-27.2 4.3-0.3 10 22.5 10 27.2C86.1 112.1 83.7 114.8 76.1 114.8z"/>
    <path id="XMLID_16_" fill="#E83726" d="M66.3 113.1c0.6-0.1 1.2-0.2 1.9-0.3 1.5 1.3 4.1 2 8 2 3.9 0 6.4-0.7 8-2 0.6 0.1 1.2 0.2 1.9 0.3 -0.7 3.4-3.4 5.2-9.8 5.2C69.7 118.3 67 116.4 66.3 113.1z"/>
  </g>
</svg>