<svg version="1.1" id="esq" xmlns="http://www.w3.org/2000/svg" xmlns:xlink="http://www.w3.org/1999/xlink" x="0" y="0" width="257" height="64" viewBox="0 0 257 64" enable-background="new 0 0 257 64" xml:space="preserve">
  <g id="good_causes_left_arm">
    <path id="XMLID_31_" fill="#2EC3EF" d="M203 55.5c-5.8 2.3-21.5-24.1-12.8-33.3C201.6 20.1 213.4 51.4 203 55.5z"/>
    <path id="XMLID_10_" fill="#FACAC8" d="M213.4 11.7l15.1 26.1c-2.1 0.8-4.3 1.7-6.6 2.6 -1.2 0.5-2.5 1-3.7 1.5 -1.3 0.4-2.6 0.9-3.9 1.4 -2.7 0.9-5.4 1.8-8.3 2.8 -2.9 0.9-5.8 1.7-8.8 2.6 -1.5 0.4-3 0.9-4.6 1.3 -1.6 0.4-3.1 0.7-4.7 1.1 -3.2 0.7-6.4 1.5-9.6 2.2 -3.3 0.6-6.6 1.2-9.9 1.9 -3.3 0.7-6.7 1-10.1 1.6 -3.4 0.5-6.8 1-10.2 1.3 -3.4 0.3-6.8 0.7-10.2 1 -3.4 0.2-6.8 0.4-10.1 0.6 -3.3 0.3-6.7 0.3-9.9 0.4 -3.3 0.1-6.5 0.2-9.7 0.2 -6.3 0-12.5-0.1-18.3-0.4 -2.9-0.1-5.7-0.2-8.4-0.4 -2.7-0.2-5.3-0.4-7.9-0.6 -5-0.3-9.6-0.9-13.7-1.3 -2-0.2-3.9-0.4-5.7-0.6 -1.8-0.2-3.4-0.5-4.8-0.7 -1.4-0.2-2.7-0.4-3.8-0.5 -0.7 0.9-1.5 1.9-2.4 2.9 -7.1 7.6-28.4 6.1-36.5-6.3 -8.8-13.4-6.1-23.4-0.9-26.6 9-5.7 9.7 2.2 20.4 6.2 4.5 1.6 7.1 2.4 10.9 2.9 0.5-3-0.3-6.3-1.3-8 -1.6-2.9-7.1-11.6-4.5-13.1 2.8-1.5 5.4 0 11.1 6.4 3.8 4.2 6.1 7.7 6.1 22.5l-0.1 0c0 0.1 0 0.1 0 0.2 0.6 0 1.3 0.1 2 0.1 1.4 0.1 3 0.1 4.7 0.2 1.7 0 3.6 0 5.6 0.1 4 0 8.4 0.2 13.3 0 2.4 0 5-0.1 7.6-0.1 2.6-0.1 5.3-0.3 8.1-0.4 5.6-0.2 11.4-0.7 17.4-1.3 3-0.2 6.1-0.7 9.1-1 3.1-0.4 6.2-0.7 9.3-1.2 3.1-0.5 6.3-1 9.4-1.5 3.1-0.6 6.3-1.2 9.4-1.8 3.1-0.6 6.2-1.3 9.3-2.1 3.1-0.8 6.2-1.4 9.2-2.3 3-0.9 6-1.7 8.9-2.6 2.9-0.9 5.7-1.9 8.6-2.8 1.4-0.5 2.8-0.9 4.2-1.4 1.3-0.5 2.7-1 4-1.6 2.6-1 5.2-2 7.7-3 2.4-1.1 4.8-2.2 7.1-3.2 1.1-0.5 2.3-1 3.4-1.5 1.1-0.6 2.1-1.1 3.2-1.6C211.2 12.8 212.3 12.3 213.4 11.7z"/>
    <path id="XMLID_9_" fill="#ECA39E" d="M205 46.4c-2.8 0.8-8.8 2.6-10.9 3.2 4.8-3.6 4.9-23.9-4-27.3C199.4 21.5 207.5 38.7 205 46.4z"/>
    <path id="XMLID_30_" fill="#67CBE5" d="M250.7 36.6c-9.4 6.7-30.7 14.5-47.7 18.9 5.3-4.4 0.4-31.1-12.8-33.3 14.5-5.9 27.4-13.4 38.4-19.2C248.7-7.7 265.1 27.6 250.7 36.6z"/>
  </g>
</svg>